# xmcd
#
# Track frame offsets:
#	150
#	24322
#	47104
#	67467
#	104579
#	122701
#	149665
#	182873
#	217237
#	239350
#
# Disc length: 3626 seconds
#
# Revision: 5
# Processed by: cddbd v1.5.2PL0 Copyright (c) Steve Scherf et al.
# Submitted via: audiograbber 1.83.01
#
DISCID=a60e280a
DTITLE=Within Temptation and The Metropole Orchestra - Black Symphony [CD 2)
DYEAR=2008
DGENRE=Symphonic Metal
TTITLE0=Our Solemn Hour [live]
TTITLE1=The Other Half (Of Me) [featuring George Oosthoek] [live]
TTITLE2=Frozen [live]
TTITLE3=The Promise [live]
TTITLE4=Angels [live]
TTITLE5=Mother Earth [live]
TTITLE6=The Truth Beneath The Rose [live]
TTITLE7=Deceiver Of Fools [live]
TTITLE8=All I Need [live]
TTITLE9=Ice Queen [live]
EXTD=
EXTT0=
EXTT1=
EXTT2=
EXTT3=
EXTT4=
EXTT5=
EXTT6=
EXTT7=
EXTT8=
EXTT9=
PLAYORDER=
